<?xml version="1.0" standalone="no"?>
<!DOCTYPE svg PUBLIC "-//W3C//DTD SVG 20010904//EN"
 "http://www.w3.org/TR/2001/REC-SVG-20010904/DTD/svg10.dtd">
<svg version="1.0" xmlns="http://www.w3.org/2000/svg"
 width="885.000000pt" height="1080.000000pt" viewBox="0 0 885.000000 1080.000000"
 preserveAspectRatio="xMidYMid meet">

<g transform="translate(0.000000,1080.000000) scale(0.100000,-0.100000)"
fill="#000000" stroke="none">
<path d="M4480 7409 c-1145 -92 -2157 -773 -2668 -1795 -157 -316 -255 -629
-314 -1004 -20 -128 -22 -183 -22 -460 0 -377 8 -449 96 -820 28 -119 103
-340 138 -410 17 -33 30 -66 30 -73 0 -18 95 -212 157 -319 56 -99 174 -279
215 -328 16 -19 49 -62 73 -95 63 -87 268 -309 328 -356 29 -22 77 -64 107
-93 187 -179 568 -413 888 -545 187 -76 470 -162 617 -186 17 -3 50 -9 75 -14
145 -30 446 -43 802 -33 81 2 323 38 453 68 1085 246 1961 1015 2355 2069 45
118 53 146 100 329 56 217 79 381 91 651 11 234 5 441 -17 585 -79 528 -245
968 -519 1380 -341 512 -820 920 -1374 1169 -496 224 -1070 323 -1611 280z
m506 -49 c148 -12 395 -48 407 -59 4 -4 -23 -20 -60 -35 -38 -15 -132 -65
-209 -112 -78 -46 -197 -110 -265 -143 -131 -62 -356 -198 -476 -288 -283
-213 -528 -631 -672 -1149 -28 -99 -64 -226 -81 -283 -17 -58 -44 -173 -61
-255 -65 -323 -103 -444 -186 -596 -46 -86 -86 -139 -218 -295 -61 -71 -166
-197 -235 -280 -68 -82 -155 -186 -193 -230 -158 -182 -513 -633 -581 -738
-89 -137 -154 -262 -176 -342 l-17 -59 -46 85 c-66 121 -156 313 -163 347 -3
16 9 94 31 188 47 207 81 278 280 574 99 148 179 281 217 360 33 69 91 188
128 266 74 152 152 264 311 448 52 60 132 152 177 205 102 117 203 266 260
384 24 48 83 190 131 315 143 367 223 535 386 807 104 173 319 491 472 696
l125 167 131 12 c73 6 141 13 152 14 52 8 315 5 431 -4z m-893 -182 c-141
-188 -388 -557 -490 -733 -131 -227 -215 -405 -338 -716 -175 -441 -228 -533
-467 -803 -288 -325 -367 -440 -492 -719 -90 -201 -118 -248 -299 -520 -170
-253 -208 -327 -243 -472 -14 -60 -32 -130 -38 -155 l-12 -45 -42 125 c-22 69
-50 164 -63 213 l-21 87 30 64 c17 35 37 87 46 115 32 109 200 427 280 531 23
30 53 73 66 95 13 22 87 131 165 243 148 214 171 250 274 414 36 57 80 127 99
155 19 29 43 76 53 104 11 28 31 73 44 99 30 60 114 286 149 405 15 50 36 113
46 140 21 55 31 106 57 275 21 140 24 514 4 630 l-12 75 28 22 c45 36 270 167
388 226 222 111 476 200 745 261 168 39 166 46 43 -116z m1518 73 c142 -40
287 -92 424 -151 163 -70 158 -65 90 -84 -32 -10 -94 -37 -139 -61 -44 -24
-137 -67 -206 -95 -188 -77 -606 -300 -795 -426 -179 -118 -342 -270 -445
-415 -102 -143 -234 -460 -315 -758 -24 -86 -53 -181 -65 -211 -12 -30 -45
-120 -72 -200 -91 -261 -168 -391 -376 -626 -191 -218 -513 -526 -692 -664
-263 -201 -420 -375 -600 -660 -169 -268 -224 -378 -275 -543 -15 -49 -31 -85
-35 -80 -4 4 -31 43 -60 86 l-52 79 16 70 c32 142 167 360 404 658 335 418
434 527 682 745 154 137 294 293 375 420 122 191 146 284 170 650 15 237 18
257 55 385 21 74 52 186 69 248 63 229 196 522 329 722 114 173 247 302 442
430 85 56 224 135 308 176 84 41 205 107 270 146 121 73 345 186 373 187 8 1
62 -12 120 -28z m739 -308 l101 -57 -183 -62 c-249 -84 -361 -130 -567 -234
-283 -143 -533 -309 -766 -509 -253 -217 -355 -350 -520 -682 -101 -203 -169
-369 -239 -580 -85 -257 -161 -409 -335 -669 -58 -85 -148 -220 -201 -300
-154 -231 -309 -403 -515 -570 -169 -137 -458 -446 -561 -601 -108 -162 -198
-372 -235 -549 -11 -52 -22 -96 -23 -98 -2 -1 -37 38 -77 88 -85 105 -83 95
-34 246 40 122 89 220 202 407 220 364 332 491 678 769 211 170 468 417 661
637 195 221 289 365 353 541 107 294 154 433 176 519 44 175 165 499 232 621
108 198 279 374 523 537 163 109 598 343 760 408 63 26 160 70 215 97 80 41
210 91 246 97 4 1 53 -25 109 -56z m286 -184 c167 -120 457 -378 485 -431 17
-32 -50 -55 -516 -178 -99 -26 -263 -72 -364 -104 -101 -31 -247 -69 -325 -85
-158 -32 -414 -128 -533 -199 -92 -55 -200 -150 -307 -270 -93 -105 -164 -203
-360 -499 -67 -100 -131 -197 -143 -215 -13 -18 -35 -58 -50 -88 -15 -30 -50
-91 -78 -135 -67 -105 -126 -209 -216 -380 -91 -175 -234 -409 -299 -489 -97
-122 -229 -238 -485 -426 -325 -238 -479 -394 -640 -645 -188 -293 -289 -579
-272 -767 l5 -61 -95 94 -94 94 6 56 c10 92 51 229 109 363 61 141 120 243
206 350 107 135 345 379 485 496 239 201 360 337 534 600 53 80 131 195 173
255 92 133 213 343 261 451 19 44 67 174 107 289 144 418 309 745 488 967 173
214 607 539 972 726 210 109 295 145 550 233 263 91 267 91 396 -2z m-3776
-80 c20 -136 15 -447 -9 -609 -26 -173 -28 -181 -51 -245 -10 -27 -33 -99 -51
-160 -35 -118 -134 -382 -149 -400 -6 -7 -16 -29 -24 -51 -22 -64 -247 -434
-305 -504 -12 -14 18 38 66 115 222 357 364 706 439 1073 36 178 65 486 64
682 -1 189 -2 185 5 179 2 -3 9 -39 15 -80z m-62 9 c-6 -24 -7 -88 -4 -142 10
-172 -30 -525 -84 -744 -109 -443 -300 -822 -668 -1326 -216 -294 -379 -571
-458 -775 -26 -68 -29 -72 -36 -46 -16 62 -20 164 -8 217 12 52 123 345 201
528 22 52 89 187 149 300 307 581 378 762 480 1230 22 102 50 223 61 270 12
47 23 118 25 159 l3 75 88 79 c69 62 252 215 259 217 1 0 -3 -19 -8 -42z
m-383 -350 c-7 -35 -29 -139 -50 -233 -121 -550 -190 -754 -379 -1119 -51
-100 -134 -260 -184 -356 -49 -96 -109 -224 -133 -285 -23 -60 -69 -175 -101
-255 l-59 -145 4 257 c4 216 7 261 21 282 9 14 16 33 16 42 0 29 61 198 99
274 20 41 67 120 102 175 158 243 196 332 268 621 114 455 114 457 176 536 42
54 225 267 231 268 0 0 -5 -28 -11 -62z m4810 -128 l45 -55 -137 -7 c-200 -9
-411 -53 -683 -143 -91 -30 -205 -64 -255 -76 -277 -67 -659 -254 -945 -462
-55 -40 -168 -143 -269 -244 -146 -147 -166 -164 -127 -109 25 35 63 91 85
123 110 165 309 374 439 460 85 57 378 183 458 197 124 22 292 65 464 118 107
33 272 80 365 104 242 62 403 109 455 132 25 11 48 20 52 19 5 -1 28 -27 53
-57z m193 -260 c203 -299 354 -637 447 -995 18 -71 39 -157 45 -190 6 -33 13
-71 16 -84 5 -24 4 -23 -29 6 -22 20 -71 43 -134 63 -54 18 -116 45 -138 60
-59 40 -203 88 -330 110 -126 21 -216 43 -283 69 -26 10 -114 26 -197 36 -208
24 -284 18 -455 -40 -213 -72 -318 -95 -440 -95 -58 0 -163 -7 -235 -15 -71
-8 -180 -19 -242 -25 -201 -19 -398 -104 -663 -285 -41 -29 -99 -65 -128 -81
-86 -45 -278 -257 -353 -386 -23 -40 -56 -96 -74 -124 -54 -84 -246 -443 -282
-527 -36 -86 -111 -322 -143 -450 -11 -45 -36 -131 -55 -192 -74 -236 -165
-563 -176 -630 -16 -93 -15 -361 1 -454 13 -78 94 -319 131 -394 51 -100 108
-186 163 -244 32 -35 52 -61 45 -59 -8 3 -72 24 -144 47 -400 127 -771 330
-1091 598 l-91 76 -7 75 c-19 210 81 487 286 795 144 218 254 331 506 523 334
255 404 310 475 380 43 43 102 109 132 147 70 92 232 360 307 508 65 131 212
382 229 392 5 4 14 17 19 28 12 33 172 246 287 382 131 157 365 383 484 467
106 76 407 250 522 302 86 39 393 146 420 146 10 0 107 29 215 64 280 92 495
137 692 145 181 7 152 24 268 -149z m-5337 22 c-6 -12 -11 -30 -11 -41 0 -23
-46 -177 -60 -203 -5 -9 -23 -73 -39 -142 -57 -236 -99 -336 -224 -531 -82
-128 -117 -196 -164 -320 -18 -49 -30 -74 -27 -55 16 87 134 347 205 452 82
120 146 286 180 463 21 114 97 340 128 382 19 26 27 22 12 -5z m-141 -253
c-12 -30 -39 -119 -61 -199 -38 -141 -69 -215 -163 -385 -24 -44 -66 -128 -92
-187 -51 -115 -67 -137 -34 -47 11 30 34 101 51 159 52 176 116 336 217 539
91 183 128 238 82 120z m4882 -744 c70 -8 152 -24 181 -35 75 -28 154 -48 261
-65 147 -24 273 -65 351 -114 26 -17 89 -44 139 -61 110 -36 178 -92 190 -153
9 -49 -9 -49 -68 2 -36 31 -57 41 -112 50 -70 13 -100 25 -198 85 -75 45 -274
108 -481 152 -88 19 -205 46 -260 59 -173 43 -340 50 -491 21 -16 -4 9 8 56
24 149 54 219 60 432 35z m-3232 -155 c-23 -293 -106 -453 -378 -731 -83 -85
-151 -151 -152 -147 0 3 48 62 106 130 251 292 337 450 400 740 15 70 29 126
30 125 2 -1 -1 -54 -6 -117z m3045 60 c49 -6 132 -22 185 -35 53 -13 163 -38
244 -55 81 -17 200 -46 264 -66 113 -33 269 -100 259 -111 -3 -3 -36 0 -74 6
-88 13 -671 46 -781 43 -46 -1 -132 -13 -190 -26 -102 -23 -140 -36 -386 -140
-75 -32 -149 -54 -240 -72 -234 -46 -772 -183 -853 -218 -94 -40 -261 -138
-343 -201 -153 -118 -350 -432 -414 -660 -14 -49 -37 -175 -51 -280 -42 -314
-59 -944 -31 -1135 48 -316 149 -656 272 -918 l44 -94 -38 6 c-20 3 -64 8 -97
11 -33 3 -92 11 -132 17 l-71 10 -50 92 c-76 137 -165 339 -205 461 -68 213
-102 500 -94 798 8 321 101 816 200 1069 153 390 352 668 697 972 190 168 292
228 492 290 151 47 230 62 408 76 202 15 268 26 400 64 208 61 274 78 355 91
102 17 121 17 230 5z m-595 -46 c-99 -32 -173 -45 -340 -59 -234 -20 -294 -30
-430 -69 -258 -75 -358 -136 -619 -375 -399 -367 -642 -792 -746 -1307 -41
-201 -84 -490 -95 -634 -15 -201 7 -505 56 -745 29 -144 133 -406 235 -592 60
-111 49 -114 -24 -6 -25 38 -61 84 -79 103 -107 114 -166 256 -200 477 -21
135 -23 180 -22 513 1 267 5 412 18 540 20 197 35 269 101 490 55 182 99 293
159 398 24 43 60 111 81 152 41 84 175 310 241 410 66 99 225 263 297 306 34
21 100 63 147 94 270 180 440 253 625 270 55 5 141 14 190 21 50 6 162 14 250
18 88 5 169 8 180 9 11 0 0 -6 -25 -14z m838 -224 c64 -5 218 -14 342 -20 241
-11 394 -30 462 -57 24 -10 95 -31 158 -48 l115 -30 9 -138 c5 -76 6 -140 3
-143 -11 -11 -75 26 -132 75 -33 29 -86 65 -120 80 -104 49 -380 140 -477 156
-51 9 -131 27 -178 40 -125 35 -290 58 -415 59 -114 0 -109 5 25 25 78 12 79
12 208 1z m-4708 -50 c-12 -16 -24 -30 -26 -30 -3 0 4 14 16 30 12 17 24 30
26 30 3 0 -4 -13 -16 -30z m4357 14 c-3 -3 -12 -4 -19 -1 -8 3 -5 6 6 6 11 1
17 -2 13 -5z m-160 -58 c-53 -24 -187 -94 -297 -156 -110 -61 -295 -155 -412
-209 -217 -99 -391 -199 -577 -335 -54 -39 -127 -91 -161 -116 -154 -110 -291
-312 -354 -521 -98 -322 -108 -590 -36 -890 100 -411 239 -808 346 -987 61
-103 245 -339 272 -350 32 -13 -70 -22 -314 -28 l-241 -7 -21 34 c-28 46 -131
300 -175 434 -39 116 -94 337 -124 495 -15 81 -18 144 -16 440 1 190 6 408 13
485 16 202 57 468 86 555 56 167 187 392 303 521 82 92 324 244 471 298 66 23
629 163 750 186 147 27 205 43 291 81 204 88 265 113 279 113 8 1 -29 -19 -83
-43z m503 -2 c52 -8 145 -28 205 -44 61 -15 135 -32 165 -35 66 -9 416 -126
483 -163 27 -14 74 -48 105 -75 31 -27 75 -58 99 -68 l43 -18 0 -58 -1 -58
-22 30 c-33 46 -88 94 -130 116 -21 11 -125 42 -230 69 -106 27 -232 61 -281
74 -132 37 -397 76 -519 76 -285 0 -513 -93 -974 -398 -148 -98 -334 -217
-414 -264 -79 -47 -175 -112 -214 -145 -179 -151 -374 -478 -446 -750 -27
-101 -36 -335 -19 -499 12 -126 56 -372 91 -514 26 -103 95 -281 159 -410 43
-85 196 -325 249 -390 46 -57 18 -53 -48 6 -68 61 -182 207 -254 324 -75 124
-178 387 -256 655 -160 554 -173 719 -81 1083 74 295 201 491 410 632 36 24
90 62 120 85 85 65 306 203 400 250 47 24 151 72 232 109 80 36 215 105 300
152 169 96 359 192 428 218 102 38 205 41 400 10z m-4822 -131 c-50 -76 -113
-167 -138 -203 -100 -139 -250 -427 -290 -559 -11 -36 -27 -77 -36 -91 l-15
-25 6 33 c20 104 155 387 275 577 69 108 278 405 285 405 3 0 -36 -62 -87
-137z m4962 -92 c19 -5 75 -15 123 -21 48 -6 143 -27 210 -47 67 -19 169 -46
227 -59 133 -31 227 -61 263 -87 16 -10 27 -21 25 -22 -4 -5 -215 58 -281 83
-81 32 -246 80 -315 92 -235 42 -512 59 -640 40 -146 -22 -361 -107 -509 -201
-54 -34 -124 -77 -156 -95 -31 -18 -84 -54 -117 -79 -66 -51 -313 -197 -289
-171 3 3 136 92 295 197 368 242 532 324 754 374 74 17 350 14 410 -4z m-15
-72 c248 -30 450 -77 605 -139 25 -10 88 -30 140 -45 150 -42 187 -61 200
-101 7 -19 9 -42 6 -51 -4 -9 -3 -19 2 -22 19 -13 -34 -333 -88 -539 l-33
-123 -71 69 c-78 75 -202 163 -263 186 -21 8 -90 29 -153 47 -166 48 -240 46
-429 -10 -247 -73 -442 -160 -580 -259 -140 -101 -477 -370 -518 -415 -180
-195 -333 -506 -349 -710 -9 -115 19 -333 62 -467 20 -63 45 -133 57 -155 45
-90 133 -224 193 -297 l65 -77 -139 -45 c-134 -43 -299 -84 -305 -75 -1 2 -28
33 -58 69 -311 364 -461 725 -506 1212 -19 201 -19 184 28 521 10 71 96 304
150 407 82 156 280 313 666 530 67 37 151 91 188 119 36 28 76 56 88 62 12 6
74 44 137 84 63 40 140 85 170 100 83 42 257 105 330 120 81 16 286 18 405 4z
m-1455 -504 c0 -2 -50 -34 -111 -70 -61 -36 -159 -105 -217 -152 -68 -55 -92
-71 -67 -44 59 62 128 113 267 197 129 77 128 77 128 69z m1683 -236 c32 -5
70 -15 86 -22 23 -10 -7 -12 -170 -12 -199 0 -212 4 -94 30 76 17 107 18 178
4z m247 -68 c65 -25 183 -109 267 -189 56 -55 71 -74 66 -91 -5 -19 -8 -18
-33 17 -25 35 -130 121 -205 168 -16 10 -53 35 -81 56 -28 21 -68 45 -90 53
l-39 15 35 -6 c19 -4 55 -14 80 -23z m-615 -4 c-362 -153 -824 -470 -1063
-730 -98 -108 -173 -260 -224 -457 -60 -231 -49 -368 49 -615 69 -175 118
-272 177 -355 40 -56 42 -59 11 -25 -20 22 -56 69 -79 105 -130 197 -187 358
-212 592 -14 137 -14 157 1 229 45 226 193 498 352 650 45 43 347 283 473 376
114 84 306 178 480 234 75 24 96 22 35 -4z m527 -29 c45 -20 261 -169 306
-212 19 -17 47 -47 63 -67 l29 -37 -21 -55 -21 -55 -86 52 -86 51 -276 2 -275
1 -105 -33 c-58 -19 -174 -52 -258 -75 -123 -32 -189 -56 -329 -122 -259 -123
-308 -176 -403 -437 -56 -153 -68 -201 -85 -341 -28 -233 -17 -350 50 -502 52
-117 100 -194 167 -264 l59 -61 -93 -40 -92 -40 -69 96 c-77 108 -124 195
-191 358 -72 174 -90 251 -90 373 1 208 100 490 224 639 169 204 591 516 904
670 246 122 248 122 461 118 139 -2 188 -6 217 -19z m-2506 -376 c-25 -61 -50
-142 -56 -179 -46 -315 -49 -371 -25 -608 21 -212 92 -490 164 -650 68 -150
215 -379 331 -515 62 -74 65 -80 41 -80 -35 0 -89 59 -182 198 -185 277 -280
514 -343 852 -38 209 -46 273 -53 424 -7 163 6 280 43 400 26 82 114 280 121
272 2 -2 -16 -54 -41 -114z m2764 -45 c45 -29 74 -54 72 -62 -2 -8 -13 -37
-26 -64 l-23 -50 -34 51 c-41 63 -116 107 -233 139 -147 40 -387 13 -550 -61
-38 -18 -108 -45 -155 -62 -114 -40 -180 -84 -274 -182 -84 -86 -137 -167
-186 -281 -16 -38 -57 -119 -90 -180 -124 -225 -152 -347 -117 -508 29 -131
126 -298 211 -363 l37 -28 -47 -24 c-33 -16 -50 -20 -55 -13 -3 7 -14 9 -23 6
-42 -17 -164 149 -233 318 -53 131 -62 223 -40 417 14 128 25 178 62 290 91
276 164 375 324 441 41 17 115 51 163 75 62 31 148 61 290 99 111 30 225 63
252 74 46 19 72 20 325 18 l275 -2 75 -48z m-315 -22 c64 -10 167 -45 212 -74
29 -18 52 -43 72 -81 l29 -55 -20 -40 c-11 -22 -22 -42 -24 -44 -2 -2 -22 13
-46 33 -23 20 -67 49 -98 64 -50 25 -67 27 -194 30 -79 2 -165 -1 -200 -8
-143 -27 -332 -105 -445 -184 -42 -29 -92 -61 -111 -71 -19 -10 -79 -48 -132
-86 -54 -38 -98 -66 -98 -63 0 3 21 46 47 96 37 72 65 109 137 182 94 95 159
137 266 171 30 10 93 35 140 55 90 40 192 66 306 79 68 8 81 8 159 -4z m2
-215 c40 -5 91 -19 113 -30 48 -24 120 -87 120 -104 0 -6 -30 -60 -66 -119
l-66 -108 -46 63 c-35 46 -62 70 -102 90 -161 82 -486 75 -663 -14 -62 -31
-53 -15 20 35 134 92 345 172 488 186 112 11 121 12 202 1z m-3591 -542 c-1
-395 1 -433 22 -573 33 -216 73 -312 197 -477 52 -70 95 -129 95 -131 0 -2
-11 -2 -25 0 -40 8 -176 159 -238 265 -52 88 -111 232 -159 388 -15 50 -21
105 -25 235 -6 201 8 314 60 480 19 61 43 138 52 173 10 34 19 62 20 62 1 0 2
-190 1 -422z m3465 313 c79 -25 107 -46 160 -117 l39 -54 -52 -72 c-47 -64
-53 -70 -56 -48 -10 78 -62 143 -154 192 -38 20 -56 23 -168 22 -106 -1 -138
-5 -209 -27 -46 -15 -103 -38 -125 -51 -57 -33 -129 -112 -161 -177 -25 -49
-27 -60 -22 -132 8 -99 40 -214 80 -290 32 -61 86 -108 146 -128 l35 -12 -34
-28 c-38 -32 -75 -37 -107 -14 -34 24 -170 227 -210 312 -49 107 -54 168 -18
253 32 77 98 181 151 240 57 63 205 131 329 150 101 15 300 5 376 -19z m-704
-62 c-55 -48 -145 -179 -187 -272 -48 -107 -39 -211 30 -347 38 -75 159 -246
199 -283 l37 -34 -35 -23 c-121 -80 -207 -130 -224 -130 -32 0 -149 127 -190
207 -44 84 -77 204 -77 279 0 61 28 155 73 241 l32 62 3 -72 c1 -40 14 -128
28 -197 33 -162 110 -327 181 -390 49 -43 70 -49 79 -25 4 10 -5 24 -22 38
-56 43 -77 73 -125 172 -53 111 -99 305 -99 414 0 74 40 181 85 226 28 27 241
175 253 175 3 0 -16 -18 -41 -41z m625 -85 c89 -46 119 -85 131 -176 5 -34 1
-44 -46 -100 l-52 -62 -7 73 c-12 119 -59 203 -145 261 l-48 32 67 -5 c37 -4
82 -14 100 -23z m-154 -38 c82 -43 132 -139 139 -266 5 -82 4 -86 -22 -110
l-26 -25 10 28 c19 50 13 92 -21 143 -45 66 -107 111 -165 120 -130 19 -234
-144 -173 -271 28 -58 53 -75 132 -86 35 -5 78 -12 96 -15 l34 -6 -33 -34
c-31 -32 -37 -34 -96 -34 -209 0 -323 223 -215 423 32 60 79 96 162 124 75 26
139 29 178 9z m-342 -48 c-43 -59 -56 -86 -71 -150 -40 -162 29 -319 169 -384
28 -13 67 -24 86 -24 l35 0 -25 -19 c-13 -11 -28 -17 -31 -15 -4 2 -19 -1 -33
-7 -57 -26 -148 27 -190 110 -30 58 -63 177 -71 257 -8 75 12 120 88 201 52
56 71 69 43 31z m287 -122 c18 -7 43 -26 57 -42 24 -27 24 -27 -12 3 -45 38
-93 51 -116 30 -9 -8 -27 -18 -40 -22 -29 -9 -45 -50 -37 -94 9 -48 30 -76 73
-98 l37 -18 -33 -3 c-43 -4 -80 20 -99 66 -14 33 -14 42 2 90 14 47 22 55 63
76 57 29 64 30 105 12z m40 -83 c37 -35 9 -114 -41 -112 -46 1 -87 31 -90 68
-2 18 2 38 8 46 23 28 90 27 123 -2z m78 -93 c-13 -42 -56 -90 -80 -89 -9 1
-27 5 -41 9 -24 8 -23 8 7 9 21 1 45 12 68 32 29 26 35 38 35 73 1 34 2 38 12
22 7 -13 7 -29 -1 -56z"/>
</g>
</svg>
